<svg width="770" height="213" viewBox="0 0 770 213" fill="none" xmlns="http://www.w3.org/2000/svg">
<path d="M70.075 203L60.4707 205.785L62.563 213H70.075V203ZM14.25 10.5V0.499989H0.937988L4.64571 13.2852L14.25 10.5ZM34.6 10.5L44.2146 7.75068L42.1413 0.499989H34.6V10.5ZM82.175 176.875L72.5604 179.624L81.9317 212.397L91.7511 179.756L82.175 176.875ZM132.225 10.5V0.499989H124.791L122.649 7.61925L132.225 10.5ZM154.775 10.5L164.351 7.61925L162.209 0.499989H154.775V10.5ZM204.825 176.875L195.249 179.756L205.068 212.397L214.44 179.624L204.825 176.875ZM252.4 10.5V0.499989H244.859L242.785 7.75068L252.4 10.5ZM272.75 10.5L282.354 13.2852L286.062 0.499989H272.75V10.5ZM216.925 203V213H224.437L226.529 205.785L216.925 203ZM193.825 203L184.249 205.882L186.392 213H193.825V203ZM143.5 35.8L153.076 32.9178L143.5 1.10363L133.924 32.9178L143.5 35.8ZM93.175 203V213H100.608L102.751 205.882L93.175 203ZM79.6793 200.215L23.8543 7.71474L4.64571 13.2852L60.4707 205.785L79.6793 200.215ZM14.25 20.5H34.6V0.499989H14.25V20.5ZM24.9854 13.2493L72.5604 179.624L91.7896 174.126L44.2146 7.75068L24.9854 13.2493ZM91.7511 179.756L141.801 13.3807L122.649 7.61925L72.5989 173.994L91.7511 179.756ZM132.225 20.5H154.775V0.499989H132.225V20.5ZM145.199 13.3807L195.249 179.756L214.401 173.994L164.351 7.61925L145.199 13.3807ZM214.44 179.624L262.015 13.2493L242.785 7.75068L195.21 174.126L214.44 179.624ZM252.4 20.5H272.75V0.499989H252.4V20.5ZM263.146 7.71474L207.321 200.215L226.529 205.785L282.354 13.2852L263.146 7.71474ZM216.925 193H193.825V213H216.925V193ZM203.401 200.118L153.076 32.9178L133.924 38.6821L184.249 205.882L203.401 200.118ZM133.924 32.9178L83.5993 200.118L102.751 205.882L153.076 38.6821L133.924 32.9178ZM93.175 193H70.075V213H93.175V193ZM420.139 203L410.785 206.535L413.228 213H420.139V203ZM402.264 155.7L411.619 152.165L409.175 145.7H402.264V155.7ZM310.964 155.7V145.7H304.053L301.61 152.165L310.964 155.7ZM293.089 203V213H300L302.444 206.535L293.089 203ZM272.739 203L263.405 199.413L258.183 213H272.739V203ZM346.714 10.5V0.499989H339.844L337.38 6.91288L346.714 10.5ZM366.514 10.5L375.849 6.91288L373.384 0.499989H366.514V10.5ZM440.489 203V213H455.045L449.824 199.413L440.489 203ZM317.839 137.55L308.479 134.031L303.396 147.55H317.839V137.55ZM395.389 137.55V147.55H409.833L404.749 134.031L395.389 137.55ZM356.614 34.425L365.974 30.9055L356.614 6.01137L347.254 30.9055L356.614 34.425ZM429.494 199.465L411.619 152.165L392.91 159.235L410.785 206.535L429.494 199.465ZM402.264 145.7H310.964V165.7H402.264V145.7ZM301.61 152.165L283.735 199.465L302.444 206.535L320.319 159.235L301.61 152.165ZM293.089 193H272.739V213H293.089V193ZM282.074 206.587L356.049 14.0871L337.38 6.91288L263.405 199.413L282.074 206.587ZM346.714 20.5H366.514V0.499989H346.714V20.5ZM357.18 14.0871L431.155 206.587L449.824 199.413L375.849 6.91288L357.18 14.0871ZM440.489 193H420.139V213H440.489V193ZM317.839 147.55H395.389V127.55H317.839V147.55ZM404.749 134.031L365.974 30.9055L347.254 37.9444L386.029 141.069L404.749 134.031ZM347.254 30.9055L308.479 134.031L327.199 141.069L365.974 37.9444L347.254 30.9055ZM516.907 203L507.524 206.458L509.935 213H516.907V203ZM445.957 10.5V0.499989H431.614L436.574 13.9583L445.957 10.5ZM466.857 10.5L476.268 7.11993L473.891 0.499989H466.857V10.5ZM526.807 177.425L517.396 180.805L526.807 207.01L536.219 180.805L526.807 177.425ZM586.757 10.5V0.499989H579.723L577.346 7.11993L586.757 10.5ZM607.657 10.5L617.04 13.9583L622 0.499989H607.657V10.5ZM536.707 203V213H543.679L546.09 206.458L536.707 203ZM526.29 199.542L455.34 7.04169L436.574 13.9583L507.524 206.458L526.29 199.542ZM445.957 20.5H466.857V0.499989H445.957V20.5ZM457.446 13.88L517.396 180.805L536.219 174.045L476.268 7.11993L457.446 13.88ZM536.219 180.805L596.168 13.88L577.346 7.11993L517.396 174.045L536.219 180.805ZM586.757 20.5H607.657V0.499989H586.757V20.5ZM598.274 7.04169L527.324 199.542L546.09 206.458L617.04 13.9583L598.274 7.04169ZM536.707 193H516.907V213H536.707V193ZM665.517 184.85H655.517V194.85H665.517V184.85ZM759.017 184.85H769.017V174.85H759.017V184.85ZM759.017 203V213H769.017V203H759.017ZM646.267 203H636.267V213H646.267V203ZM646.267 10.5V0.499989H636.267V10.5H646.267ZM757.642 10.5H767.642V0.499989H757.642V10.5ZM757.642 28.65V38.65H767.642V28.65H757.642ZM665.517 28.65V18.65H655.517V28.65H665.517ZM665.517 96.85H655.517V106.85H665.517V96.85ZM750.767 96.85H760.767V86.85H750.767V96.85ZM750.767 115V125H760.767V115H750.767ZM665.517 115V105H655.517V115H665.517ZM665.517 194.85H759.017V174.85H665.517V194.85ZM749.017 184.85V203H769.017V184.85H749.017ZM759.017 193H646.267V213H759.017V193ZM656.267 203V10.5H636.267V203H656.267ZM646.267 20.5H757.642V0.499989H646.267V20.5ZM747.642 10.5V28.65H767.642V10.5H747.642ZM757.642 18.65H665.517V38.65H757.642V18.65ZM655.517 28.65V96.85H675.517V28.65H655.517ZM665.517 106.85H750.767V86.85H665.517V106.85ZM740.767 96.85V115H760.767V96.85H740.767ZM750.767 105H665.517V125H750.767V105ZM655.517 115V184.85H675.517V115H655.517Z" fill="url(#paint0_linear)"/>
<defs>
<linearGradient id="paint0_linear" x1="-1.00001" y1="109" x2="777" y2="109" gradientUnits="userSpaceOnUse">
<stop offset="0.28125" stop-color="#00FFFF"/>
<stop offset="0.921875" stop-color="#FF00FF"/>
</linearGradient>
</defs>
</svg>
